<?xml version="1.0" standalone="no"?>
<!DOCTYPE svg PUBLIC "-//W3C//DTD SVG 20010904//EN"
 "http://www.w3.org/TR/2001/REC-SVG-20010904/DTD/svg10.dtd">
<svg version="1.0" xmlns="http://www.w3.org/2000/svg"
 width="304.000000pt" height="172.000000pt" viewBox="0 0 304.000000 172.000000"
 preserveAspectRatio="xMidYMid meet">
<metadata>
Created by potrace 1.16, written by Peter Selinger 2001-2019
</metadata>
<g transform="translate(0.000000,172.000000) scale(0.100000,-0.100000)"
fill="#000000" stroke="none">
<path d="M296 1502 c-2 -4 0 -41 4 -82 13 -105 12 -287 0 -295 -26 -16 7 -26
69 -20 185 17 181 16 181 37 0 16 -5 19 -27 14 -43 -9 -177 -25 -181 -21 -2 1
-5 77 -7 168 -1 90 -6 174 -10 186 -6 21 -20 27 -29 13z"/>
<path d="M1216 1402 c-8 -7 -8 -232 0 -270 5 -23 17 -37 46 -52 22 -12 43 -19
45 -16 3 3 -2 24 -11 46 -13 32 -15 61 -11 133 7 112 -1 148 -37 158 -15 4
-29 4 -32 1z"/>
<path d="M1000 1386 c-30 -17 -81 -85 -105 -141 -19 -46 -23 -121 -7 -137 32
-32 124 45 180 150 34 63 33 64 56 -70 16 -90 13 -133 -10 -180 -17 -32 -69
-74 -113 -89 -34 -12 -37 -32 -5 -37 30 -4 112 56 139 102 38 65 40 114 11
260 -14 71 -28 131 -31 134 -9 9 -20 -9 -39 -61 -34 -91 -134 -200 -162 -176
-45 37 73 238 132 226 18 -3 24 0 24 14 0 23 -33 25 -70 5z"/>
<path d="M1377 1383 c-6 -9 21 -264 28 -271 13 -13 33 12 48 59 25 80 70 163
90 167 15 3 17 -9 17 -132 0 -118 2 -136 16 -136 14 0 15 17 12 138 -3 150
-13 181 -49 161 -20 -10 -56 -76 -95 -169 l-22 -55 -7 123 c-6 90 -11 122 -21
122 -7 0 -15 -3 -17 -7z"/>
<path d="M679 1370 c-27 -16 -71 -128 -73 -185 -1 -71 20 -95 82 -95 86 0 149
67 143 152 -2 26 -70 98 -92 98 -30 0 -22 -20 21 -57 32 -27 40 -41 40 -68 0
-68 -110 -124 -155 -79 -28 28 -2 132 50 200 29 39 21 56 -16 34z"/>
<path d="M1009 763 c-2 -18 4 -206 10 -317 7 -130 21 -159 41 -84 30 108 102
198 160 198 17 0 30 -5 30 -11 0 -62 -78 -171 -145 -203 -33 -16 -45 -39 -26
-50 12 -8 81 44 123 94 42 48 67 97 75 143 7 43 -24 73 -64 62 -33 -8 -124
-98 -143 -142 -8 -17 -17 -30 -21 -27 -4 2 -8 74 -8 159 -1 86 -4 162 -7 170
-6 16 -23 21 -25 8z"/>
<path d="M240 590 c-26 -26 -25 -40 2 -37 20 2 26 -6 41 -53 10 -30 26 -93 36
-140 21 -105 39 -115 63 -36 10 30 32 85 49 122 l33 68 18 -83 c30 -143 63
-165 109 -74 46 90 62 233 26 233 -8 0 -12 -23 -12 -77 0 -84 -32 -179 -57
-171 -32 11 -65 196 -44 242 7 14 5 17 -10 14 -22 -4 -52 -54 -101 -172 l-37
-89 -28 112 c-24 99 -48 161 -63 161 -3 0 -14 -9 -25 -20z"/>
<path d="M820 603 c-27 -10 -71 -57 -93 -98 -14 -27 -21 -59 -21 -98 -1 -52 2
-61 27 -83 46 -39 116 -30 159 20 27 31 60 96 55 109 -2 7 -13 -7 -25 -29 -42
-82 -114 -116 -160 -76 -21 17 -25 33 -23 88 1 28 5 31 49 43 94 24 157 88
116 118 -18 13 -56 16 -84 6z"/>
<path d="M1991 580 c-78 -57 -170 -204 -157 -253 18 -72 145 -8 208 105 12 21
25 38 30 38 4 0 8 -39 8 -86 0 -76 2 -85 18 -82 10 2 16 12 15 23 -1 10 -4 51
-7 89 -11 128 -19 167 -33 182 -21 20 -35 18 -82 -16z m67 -12 c21 -21 13 -53
-26 -114 -59 -90 -135 -145 -164 -116 -17 17 36 117 98 182 59 62 72 68 92 48z"/>
<path d="M2300 596 c-30 -17 -81 -85 -105 -141 -19 -46 -23 -121 -7 -137 32
-32 116 37 177 146 38 67 36 68 59 -66 16 -90 13 -133 -10 -180 -17 -32 -69
-74 -113 -89 -17 -6 -30 -16 -28 -23 13 -41 122 19 164 92 22 38 27 58 26 111
0 59 -37 268 -49 280 -8 8 -20 -12 -38 -62 -22 -58 -85 -144 -124 -169 -26
-16 -31 -17 -42 -3 -10 12 -9 25 4 66 33 99 94 167 141 155 19 -5 22 -3 18 14
-6 23 -36 26 -73 6z"/>
<path d="M2650 603 c-27 -10 -71 -57 -93 -98 -14 -27 -21 -59 -21 -98 -1 -52
2 -61 27 -83 35 -30 87 -32 132 -4 33 20 90 111 82 133 -2 6 -13 -7 -25 -29
-54 -105 -157 -127 -180 -39 -15 61 -6 80 47 94 93 24 156 88 115 118 -18 13
-56 16 -84 6z"/>
<path d="M1556 591 c-3 -4 -17 -6 -31 -3 -15 2 -25 0 -25 -7 0 -6 14 -14 30
-17 l30 -6 0 -89 c0 -88 0 -89 -25 -89 -16 0 -25 -6 -25 -15 0 -9 9 -15 25
-15 25 0 25 -1 25 -90 0 -50 4 -90 9 -90 16 0 18 22 13 101 l-5 76 60 11 c81
14 128 35 148 66 14 22 15 29 3 53 -15 33 -92 77 -160 94 -27 6 -45 15 -42 20
3 5 -2 9 -10 9 -8 0 -17 -4 -20 -9z m163 -81 c43 -25 55 -43 46 -70 -7 -23
-71 -51 -132 -57 l-53 -6 0 91 0 90 49 -13 c27 -7 67 -23 90 -35z"/>
</g>
</svg>
